<svg version="1.0" xmlns="http://www.w3.org/2000/svg"
width="820.000000pt" height="892.000000pt" viewBox="0 0 820.000000 892.000000"
preserveAspectRatio="xMidYMid meet">
  <g transform="translate(0.000000,892.000000) scale(0.100000,-0.100000)"
  fill="#ffffff" stroke="none">
    <path d="M5675 8514 c-228 -35 -358 -74 -527 -159 -439 -220 -776 -588 -913
    -998 -186 -555 15 -1171 629 -1932 113 -140 237 -283 481 -555 294 -327 373
    -423 486 -593 225 -339 369 -714 369 -962 0 -248 -115 -402 -321 -430 -137
    -20 -293 63 -407 215 -104 137 -162 268 -267 600 -46 146 -161 380 -263 535
    -456 694 -1096 1065 -1840 1065 -347 0 -629 -58 -1002 -208 -257 -103 -425
    -190 -750 -390 -214 -132 -313 -181 -436 -218 -81 -25 -103 -27 -254 -27 -140
    0 -185 4 -296 26 -73 15 -153 34 -178 41 -25 8 -48 11 -50 8 -2 -4 -9 -80 -16
    -169 -14 -184 -8 -732 9 -873 108 -860 421 -1524 980 -2080 481 -479 1139
    -844 1856 -1030 216 -56 605 -110 1030 -142 260 -20 946 -17 1165 5 410 41
    754 111 1075 220 642 216 1141 582 1470 1077 175 263 295 550 354 846 44 215
    46 558 5 814 -46 291 -159 596 -320 861 -245 405 -529 696 -1364 1399 -534
    449 -790 731 -949 1044 -140 275 -168 516 -80 702 112 239 422 348 665 235 81
    -38 134 -87 175 -163 l34 -63 -3 -230 c-4 -262 7 -360 50 -484 48 -136 116
    -233 228 -323 41 -33 139 -127 217 -208 212 -219 429 -401 538 -451 186 -86
    158 116 -62 444 l-86 128 24 16 c13 9 65 57 115 107 177 177 273 402 274 639
    0 182 -50 367 -160 592 -262 536 -745 937 -1258 1045 -94 20 -357 35 -427 24z"/>
  </g>
</svg>
